<?xml version="1.0" encoding="UTF-8"?>
<!-- Generator: visioncortex VTracer 0.6.5 -->
<svg version="1.1" xmlns="http://www.w3.org/2000/svg" width="1024" height="1024">
<path d="M0,0 L23,0 L69,3 L96,5 L104,9 L108,14 L114,25 L118,35 L123,48 L128,67 L131,83 L134,99 L134,146 L131,170 L124,194 L119,210 L115,219 L107,235 L97,253 L89,265 L80,277 L71,288 L62,298 L43,317 L29,328 L14,339 L-4,350 L-23,360 L-34,365 L-54,372 L-72,378 L-100,384 L-114,386 L-130,387 L-175,387 L-195,384 L-215,380 L-229,376 L-232,388 L-239,402 L-248,416 L-252,426 L-254,440 L-254,459 L-252,473 L-252,550 L-249,562 L-242,576 L-235,582 L-231,584 L-224,584 L-232,578 L-238,570 L-239,565 L-210,565 L-192,567 L-169,569 L-146,573 L-137,575 L-118,583 L-109,590 L-106,599 L-120,606 L-145,615 L-159,620 L-184,627 L-213,634 L-254,641 L-270,643 L-293,643 L-327,639 L-385,630 L-425,622 L-444,618 L-459,614 L-483,606 L-496,599 L-495,594 L-488,587 L-478,581 L-468,577 L-445,571 L-421,567 L-406,567 L-409,572 L-419,579 L-422,581 L-412,578 L-397,570 L-390,564 L-382,554 L-371,536 L-363,522 L-352,499 L-347,483 L-345,472 L-344,422 L-342,406 L-336,381 L-331,365 L-327,347 L-327,323 L-335,316 L-342,309 L-352,296 L-362,281 L-367,269 L-367,255 L-361,245 L-349,234 L-337,225 L-324,215 L-323,206 L-317,197 L-306,190 L-297,187 L-281,186 L-261,172 L-260,163 L-252,154 L-242,149 L-237,147 L-221,146 L-209,137 L-206,127 L-198,120 L-190,116 L-183,114 L-172,113 L-167,109 L-134,87 L-116,75 L-99,64 L-84,54 L-64,41 L-41,26 L-22,14 L-9,5 Z " fill="#FBC125" transform="translate(721,129)"/>
<path d="M0,0 L4,4 L10,15 L14,25 L19,38 L24,57 L27,73 L30,89 L30,136 L27,160 L20,184 L15,200 L11,209 L3,225 L-7,243 L-15,255 L-24,267 L-33,278 L-42,288 L-61,307 L-75,318 L-90,329 L-108,340 L-127,350 L-138,355 L-158,362 L-176,368 L-204,374 L-218,376 L-234,377 L-279,377 L-299,374 L-319,370 L-333,366 L-334,372 L-336,368 L-337,365 L-335,350 L-333,307 L-330,298 L-328,290 L-323,277 L-311,264 L-302,257 L-300,252 L-282,241 L-271,233 L-257,222 L-242,210 L-232,202 L-222,194 L-210,184 L-196,173 L-185,163 L-175,155 L-166,148 L-161,143 L-153,136 L-140,125 L-128,114 L-120,107 L-113,102 L-112,100 L-109,100 L-107,96 L-96,86 L-88,79 L-81,72 L-70,63 L-62,56 L-60,56 L-58,52 L-50,44 L-42,37 L-26,22 L-12,9 L-7,7 Z " fill="#D55801" transform="translate(825,139)"/>
<path d="M0,0 L26,0 L36,1 L75,3 L89,4 L87,8 L74,20 L61,32 L46,46 L38,53 L23,66 L13,75 L2,84 L-9,94 L-20,103 L-35,116 L-46,125 L-60,137 L-70,145 L-85,157 L-94,164 L-109,176 L-123,187 L-133,195 L-150,208 L-163,218 L-181,231 L-200,245 L-210,253 L-222,264 L-227,270 L-233,285 L-236,299 L-237,302 L-240,302 L-240,289 L-237,273 L-230,258 L-226,251 L-238,258 L-252,263 L-280,264 L-286,268 L-292,275 L-296,279 L-296,269 L-295,261 L-300,256 L-314,257 L-312,262 L-314,262 L-314,271 L-313,277 L-316,273 L-318,265 L-322,257 L-326,254 L-342,246 L-346,243 L-346,238 L-338,229 L-322,217 L-313,210 L-308,211 L-296,217 L-290,218 L-275,218 L-255,214 L-250,212 L-259,211 L-269,207 L-269,205 L-278,206 L-293,206 L-301,201 L-304,197 L-304,191 L-299,187 L-298,184 L-291,182 L-280,182 L-262,185 L-266,181 L-266,178 L-253,169 L-248,168 L-244,171 L-237,174 L-232,176 L-201,176 L-181,172 L-197,170 L-206,166 L-207,165 L-225,165 L-236,162 L-243,156 L-243,151 L-238,145 L-232,142 L-214,142 L-204,145 L-209,141 L-208,138 L-199,132 L-194,133 L-185,137 L-180,138 L-156,138 L-146,136 L-133,131 L-149,131 L-158,128 L-177,127 L-187,123 L-191,120 L-190,115 L-182,109 L-177,108 L-159,107 L-148,99 L-124,83 L-104,70 L-65,44 L-50,34 L-34,23 L-18,12 L-7,5 Z " fill="#FDEA5A" transform="translate(715,140)"/>
<path d="M0,0 L4,4 L10,15 L14,25 L19,38 L24,57 L27,73 L30,89 L30,136 L27,160 L20,184 L15,200 L11,209 L3,225 L-7,243 L-15,255 L-24,267 L-33,278 L-42,288 L-61,307 L-75,318 L-90,329 L-108,340 L-127,350 L-138,355 L-158,362 L-176,368 L-204,374 L-218,376 L-234,377 L-279,377 L-299,374 L-319,370 L-333,366 L-334,372 L-336,368 L-337,365 L-335,350 L-333,307 L-330,298 L-328,290 L-323,277 L-311,264 L-302,257 L-300,252 L-282,241 L-271,233 L-257,222 L-242,210 L-232,202 L-222,194 L-210,184 L-196,173 L-185,163 L-175,155 L-166,148 L-161,143 L-153,136 L-140,125 L-128,114 L-120,107 L-113,102 L-112,100 L-109,100 L-107,96 L-96,86 L-88,79 L-81,72 L-70,63 L-62,56 L-60,56 L-58,52 L-50,44 L-42,37 L-26,22 L-12,9 L-7,7 Z M-8,14 L-16,20 L-26,29 L-31,33 L-31,35 L-35,37 L-36,40 L-40,42 L-56,57 L-69,69 L-79,78 L-84,82 L-84,84 L-88,86 L-94,91 L-94,93 L-98,95 L-109,105 L-117,112 L-126,119 L-126,121 L-130,123 L-144,136 L-155,145 L-160,148 L-165,154 L-176,163 L-190,175 L-198,181 L-198,183 L-203,185 L-210,192 L-218,198 L-218,200 L-222,202 L-233,211 L-249,224 L-254,226 L-259,231 L-264,235 L-273,242 L-291,256 L-299,263 L-307,271 L-312,279 L-315,290 L-315,299 L-308,313 L-301,320 L-289,326 L-283,328 L-271,330 L-250,330 L-226,327 L-207,322 L-190,317 L-174,311 L-160,305 L-141,295 L-124,285 L-111,276 L-95,264 L-86,256 L-78,249 L-74,246 L-74,244 L-72,244 L-72,242 L-70,242 L-70,240 L-67,239 L-60,231 L-49,219 L-41,208 L-31,194 L-19,174 L-11,158 L-7,150 L1,128 L7,105 L11,82 L11,51 L8,32 L1,18 L-3,14 Z " fill="#B53E01" transform="translate(825,139)"/>
<path d="M0,0 L13,1 L29,4 L41,10 L46,15 L46,18 L38,22 L25,27 L14,34 L8,41 L7,43 L7,49 L13,59 L14,62 L14,77 L9,86 L-2,96 L-15,104 L-31,112 L-52,121 L-72,128 L-87,133 L-112,140 L-142,147 L-155,150 L-181,155 L-189,156 L-209,157 L-235,157 L-264,154 L-288,150 L-324,144 L-334,142 L-357,137 L-390,129 L-414,122 L-433,115 L-460,102 L-472,93 L-481,84 L-485,76 L-485,62 L-481,54 L-472,44 L-465,38 L-452,30 L-436,22 L-412,14 L-384,8 L-364,5 L-342,3 L-304,2 L-306,8 L-311,17 L-334,18 L-366,21 L-389,24 L-404,27 L-421,32 L-436,38 L-450,46 L-457,53 L-460,59 L-460,68 L-455,78 L-446,86 L-433,94 L-422,99 L-409,104 L-398,108 L-379,113 L-362,117 L-347,120 L-329,124 L-311,127 L-286,131 L-243,138 L-231,139 L-202,139 L-166,134 L-134,127 L-100,118 L-82,112 L-72,109 L-64,106 L-39,95 L-23,85 L-15,77 L-10,67 L-10,58 L-15,50 L-24,42 L-40,34 L-54,29 L-75,25 L-95,22 L-126,19 L-142,18 L-177,17 L-177,3 L-139,3 L-95,7 L-87,8 L-40,8 L-24,6 L-6,2 Z " fill="#6C6056" transform="translate(654,641)"/>
<path d="M0,0 L14,7 L30,15 L53,23 L76,29 L91,33 L128,40 L152,44 L166,46 L182,51 L193,58 L200,65 L206,76 L212,88 L220,99 L230,108 L230,109 L193,109 L187,108 L169,107 L138,103 L114,98 L92,93 L65,84 L46,74 L34,65 L25,55 L16,39 L0,2 Z " fill="#332927" transform="translate(193,764)"/>
<path d="M0,0 L1,0 L1,6 L2,8 L2,16 L-6,32 L-15,46 L-19,56 L-21,70 L-21,89 L-19,103 L-19,180 L-16,192 L-9,206 L-2,212 L2,214 L9,214 L1,208 L-5,200 L-6,195 L23,195 L41,197 L64,199 L87,203 L96,205 L115,213 L124,220 L127,229 L113,236 L88,245 L74,250 L49,257 L20,264 L-21,271 L-37,273 L-60,273 L-94,269 L-152,260 L-192,252 L-211,248 L-226,244 L-250,236 L-263,229 L-262,224 L-255,217 L-245,211 L-235,207 L-212,201 L-188,197 L-173,197 L-176,202 L-186,209 L-189,211 L-179,208 L-165,201 L-164,205 L-174,211 L-182,215 L-191,215 L-196,214 L-195,211 L-209,211 L-209,213 L-227,217 L-236,223 L-240,227 L-240,236 L-234,236 L-225,239 L-219,241 L-215,239 L-213,237 L-208,238 L-200,241 L-181,246 L-149,251 L-114,255 L-88,259 L-75,261 L-44,261 L-23,259 L-19,258 L-5,258 L4,256 L25,253 L53,247 L71,241 L82,236 L92,235 L94,233 L95,225 L92,224 L91,220 L87,219 L71,214 L53,211 L53,215 L40,219 L28,225 L26,225 L26,227 L12,229 L-9,229 L-20,225 L-29,221 L-34,221 L-38,223 L-40,227 L-46,228 L-45,225 L-37,219 L-32,215 L-28,210 L-27,207 L-27,199 L-30,184 L-30,154 L-29,138 L-28,70 L-26,54 L-22,45 L-16,33 L-8,22 L-4,13 L-2,5 Z " fill="#F38E05" transform="translate(488,499)"/>
<path d="M0,0 L23,0 L69,3 L96,5 L104,9 L102,13 L96,19 L94,19 L92,14 L86,12 L22,8 L0,8 L-9,14 L-18,20 L-37,33 L-56,46 L-83,64 L-107,80 L-130,95 L-154,111 L-165,119 L-183,120 L-190,122 L-196,127 L-197,131 L-193,133 L-183,137 L-164,138 L-155,141 L-137,141 L-139,143 L-155,149 L-162,150 L-186,150 L-196,147 L-202,144 L-206,145 L-214,150 L-212,154 L-208,157 L-213,156 L-220,154 L-238,154 L-244,156 L-246,160 L-248,162 L-248,167 L-242,172 L-231,175 L-213,175 L-209,178 L-197,181 L-184,182 L-187,184 L-207,188 L-238,188 L-246,184 L-253,181 L-257,180 L-268,187 L-272,189 L-269,194 L-266,197 L-273,196 L-286,194 L-297,194 L-304,195 L-305,199 L-309,202 L-309,208 L-305,213 L-299,216 L-275,216 L-275,218 L-266,220 L-265,221 L-255,222 L-258,225 L-271,228 L-281,230 L-296,230 L-304,228 L-316,222 L-320,223 L-337,236 L-347,244 L-353,249 L-354,251 L-356,251 L-356,253 L-362,255 L-362,262 L-357,269 L-346,275 L-339,282 L-331,295 L-326,310 L-325,314 L-325,345 L-326,345 L-327,323 L-335,316 L-342,309 L-352,296 L-362,281 L-367,269 L-367,255 L-361,245 L-349,234 L-337,225 L-324,215 L-323,206 L-317,197 L-306,190 L-297,187 L-281,186 L-261,172 L-260,163 L-252,154 L-242,149 L-237,147 L-221,146 L-209,137 L-206,127 L-198,120 L-190,116 L-183,114 L-172,113 L-167,109 L-134,87 L-116,75 L-99,64 L-84,54 L-64,41 L-41,26 L-22,14 L-9,5 Z " fill="#E98406" transform="translate(721,129)"/>
<path d="M0,0 L19,0 L31,3 L42,10 L48,18 L50,22 L50,35 L46,43 L38,50 L22,56 L-14,62 L-46,69 L-69,77 L-72,76 L-69,70 L-69,57 L-74,51 L-84,45 L-98,39 L-108,36 L-110,34 L-76,21 L-50,13 L-28,7 L-10,2 Z " fill="#F67F05" transform="translate(790,596)"/>
<path d="M0,0 L1,2 L-9,25 L-20,47 L-28,58 L-36,65 L-51,74 L-69,82 L-89,89 L-119,96 L-152,102 L-170,104 L-180,104 L-175,99 L-168,93 L-159,79 L-151,65 L-146,59 L-136,52 L-127,48 L-103,42 L-85,37 L-61,30 L-47,25 L-34,19 L-18,11 L-2,2 Z " fill="#D05703" transform="translate(643,768)"/>
<path d="M0,0 L11,0 L9,6 L4,15 L-19,16 L-51,19 L-74,22 L-89,25 L-106,30 L-121,36 L-135,44 L-142,51 L-145,57 L-145,66 L-140,76 L-131,84 L-118,92 L-107,97 L-94,102 L-83,106 L-64,111 L-47,115 L-32,118 L-14,122 L4,125 L29,129 L78,137 L79,139 L74,140 L70,141 L54,139 L22,137 L-8,133 L-48,126 L-66,122 L-91,116 L-98,113 L-98,115 L-89,118 L-79,123 L-79,125 L-86,124 L-113,115 L-133,106 L-148,98 L-158,90 L-166,82 L-170,74 L-170,60 L-166,52 L-157,42 L-150,36 L-137,28 L-121,20 L-97,12 L-69,6 L-49,3 L-27,1 Z " fill="#6C6056" transform="translate(339,643)"/>
<path d="M0,0 L15,0 L12,5 L2,12 L-1,14 L9,11 L23,4 L24,8 L14,14 L6,18 L-3,18 L-8,17 L-7,14 L-21,14 L-21,16 L-39,20 L-48,26 L-52,30 L-52,39 L-46,39 L-37,42 L-31,44 L-27,42 L-25,40 L-20,41 L-12,44 L7,49 L39,54 L74,58 L100,62 L113,64 L144,64 L165,62 L169,61 L183,61 L192,59 L213,56 L241,50 L259,44 L270,39 L279,39 L274,44 L272,46 L271,50 L252,56 L217,65 L191,70 L161,75 L151,76 L128,76 L94,72 L36,63 L-4,55 L-23,51 L-38,47 L-62,39 L-75,32 L-74,27 L-67,20 L-57,14 L-47,10 L-24,4 Z " fill="#F7B114" transform="translate(300,696)"/>
<path d="M0,0 L11,0 L19,6 L22,12 L22,37 L18,53 L12,64 L5,72 L-7,78 L-11,79 L-24,78 L-32,72 L-36,61 L-36,50 L-33,36 L-27,24 L-17,11 L-7,3 Z " fill="#1E130E" transform="translate(415,637)"/>
<path d="M0,0 L8,0 L12,2 L12,4 L16,6 L19,12 L21,23 L21,51 L19,61 L18,71 L13,79 L8,84 L3,86 L-7,86 L-13,81 L-16,76 L-19,60 L-19,40 L-14,19 L-10,12 L-7,5 Z " fill="#B94301" transform="translate(444,429)"/>
<path d="M0,0 L7,4 L13,9 L18,18 L18,31 L14,39 L6,46 L-10,52 L-46,58 L-78,65 L-101,73 L-104,72 L-101,66 L-101,52 L-84,46 L-52,38 L-37,35 L-27,34 L-12,30 L-1,27 L7,20 L8,18 L8,10 L4,5 L1,4 Z " fill="#D15502" transform="translate(822,600)"/>
<path d="M0,0 L14,7 L30,15 L56,24 L58,28 L56,29 L47,26 L42,24 L47,38 L56,54 L64,65 L75,77 L90,88 L94,92 L87,91 L73,87 L57,80 L43,72 L33,64 L25,55 L16,39 L0,2 Z " fill="#534A43" transform="translate(193,764)"/>
<path d="M0,0 L22,0 L38,3 L60,11 L72,17 L84,20 L99,20 L117,18 L132,13 L143,10 L151,8 L168,8 L169,12 L164,16 L146,23 L128,26 L113,27 L82,27 L55,23 L37,20 L8,17 L-5,14 L-6,13 L-27,10 L-31,9 L-32,4 L-25,2 L-20,1 Z " fill="#FDE756" transform="translate(331,734)"/>
<path d="M0,0 L10,3 L32,8 L60,14 L96,20 L120,23 L152,25 L190,30 L194,31 L219,31 L231,30 L244,30 L240,33 L222,40 L204,42 L178,42 L149,39 L125,35 L89,29 L79,27 L56,22 L23,14 L19,12 L18,10 L3,4 L0,2 Z " fill="#AAA195" transform="translate(241,756)"/>
<path d="M0,0 L2,0 L5,9 L15,18 L20,23 L23,27 L25,33 L25,51 L22,61 L16,69 L12,73 L7,75 L-1,75 L-7,71 L-10,64 L-12,57 L-12,38 L-7,17 L-2,3 Z " fill="#231511" transform="translate(409,527)"/>
<path d="M0,0 L15,0 L12,5 L2,12 L-1,14 L9,11 L23,4 L24,8 L14,14 L6,18 L-3,18 L-8,17 L-7,14 L-21,14 L-21,16 L-39,20 L-48,26 L-52,30 L-52,39 L-46,39 L-40,42 L-40,44 L-38,46 L-45,45 L-62,39 L-75,32 L-74,27 L-67,20 L-57,14 L-47,10 L-24,4 Z " fill="#F18F06" transform="translate(300,696)"/>
<path d="M0,0 L3,1 L6,22 L10,28 L19,36 L23,38 L27,48 L27,73 L25,81 L22,88 L14,97 L9,100 L0,100 L-8,97 L-12,92 L-15,83 L-15,81 L-17,81 L-18,77 L-18,64 L-14,40 L-11,32 L-9,32 L-10,24 L-7,14 Z M0,20 L-3,25 L-9,44 L-12,58 L-12,77 L-9,88 L-5,93 L-1,95 L7,95 L13,92 L20,84 L23,78 L25,71 L25,53 L21,44 L17,39 L7,31 L4,27 L2,20 Z " fill="#E3840C" transform="translate(409,507)"/>
<path d="M0,0 L5,0 L9,4 L18,7 L28,16 L36,29 L41,44 L42,48 L42,79 L41,79 L40,57 L32,50 L25,43 L15,30 L5,15 L0,3 Z " fill="#B14403" transform="translate(354,395)"/>
<path d="M0,0 L2,0 L3,12 L3,62 L0,76 L-5,97 L-9,108 L-10,115 L-12,117 L-13,121 L-15,121 L-17,126 L-25,133 L-28,133 L-27,128 L-18,111 L-12,95 L-7,79 L-5,65 L-4,15 L-1,1 Z " fill="#FCEF7B" transform="translate(385,531)"/>
<path d="M0,0 L23,0 L69,3 L96,5 L104,9 L102,13 L96,19 L94,19 L92,14 L86,12 L22,8 L0,8 L-9,14 L-12,13 L-11,9 L-11,6 Z M-10,7 Z " fill="#E37605" transform="translate(721,129)"/>
<path d="M0,0 L1,0 L2,6 L2,26 L0,43 L-7,65 L-13,93 L-14,99 L-15,149 L-18,166 L-25,187 L-29,196 L-39,215 L-42,214 L-44,219 L-46,218 L-38,204 L-27,181 L-22,165 L-20,154 L-19,104 L-17,88 L-11,63 L-6,47 L-2,29 L-1,27 Z " fill="#E3A015" transform="translate(396,447)"/>
<path d="M0,0 L6,0 L5,4 L-12,17 L-25,27 L-43,40 L-62,54 L-70,60 L-73,60 L-71,51 L-61,43 L-51,35 L-41,27 L-36,24 L-30,19 L-24,16 L-22,16 L-20,12 L-15,9 L-8,7 L-8,5 Z " fill="#FDF49A" transform="translate(577,331)"/>
<path d="M0,0 L17,0 L18,4 L13,8 L-5,15 L-23,18 L-38,19 L-69,19 L-82,17 L-82,16 L-64,17 L-49,17 L-47,13 L-52,13 L-52,12 L-34,10 L-19,5 L-8,2 Z " fill="#FCDE49" transform="translate(482,742)"/>
<path d="M0,0 L5,2 L26,13 L29,15 L29,23 L23,31 L17,34 L11,34 L6,31 L2,23 L0,16 Z " fill="#251510" transform="translate(429,478)"/>
<path d="M0,0 L2,0 L0,4 L-3,6 L-3,12 L1,17 L7,20 L31,20 L31,22 L40,24 L41,25 L51,26 L48,29 L35,32 L25,34 L10,34 L2,32 L-8,27 L-4,26 L3,27 L-5,21 L-10,15 L-9,8 L-4,3 Z " fill="#FBBE1E" transform="translate(415,325)"/>
<path d="M0,0 L2,1 L-2,5 L-2,10 L4,15 L15,18 L33,18 L37,21 L49,24 L62,25 L59,27 L39,31 L8,31 L1,28 L1,27 L11,27 L11,25 L5,24 L-4,18 L-7,14 L-7,7 L-2,2 Z " fill="#FAB615" transform="translate(475,286)"/>
<path d="M0,0 L3,1 L-2,11 L-5,25 L-5,36 L-1,47 L6,52 L19,53 L32,48 L38,43 L44,34 L49,22 L51,26 L49,36 L40,47 L31,55 L24,59 L4,61 L-3,58 L-8,50 L-10,45 L-10,32 L-7,13 L-2,1 Z " fill="#F6A30D" transform="translate(385,662)"/>
<path d="M0,0 L1,4 L5,6 L15,10 L34,11 L43,14 L61,14 L59,16 L43,22 L36,23 L12,23 L7,22 L7,21 L17,20 L1,12 L-3,7 L-3,2 Z " fill="#FABB1C" transform="translate(523,256)"/>
<path d="M0,0 L3,1 L5,14 L5,22 L4,19 L-3,21 L-6,25 L-7,33 L-7,40 L-11,58 L-11,88 L-14,87 L-15,81 L-17,81 L-18,77 L-18,64 L-14,40 L-11,32 L-9,32 L-10,24 L-7,14 Z " fill="#F8AA12" transform="translate(409,507)"/>
<path d="M0,0 L6,1 L10,6 L9,14 L8,28 L4,43 L2,55 L1,55 L-4,14 L-10,4 L-10,2 Z " fill="#FAB816" transform="translate(411,395)"/>
<path d="M0,0 L13,0 L14,4 L12,6 L-11,12 L-43,18 L-51,19 L-61,19 L-61,18 L-51,16 L-35,10 L-33,9 L-38,8 L-38,7 L-26,7 L-22,6 L-19,2 L0,2 Z " fill="#82776A" transform="translate(516,778)"/>
<path d="M0,0 L1,0 L1,6 L2,8 L2,16 L-6,32 L-15,46 L-19,56 L-21,70 L-21,89 L-20,93 L-20,101 L-22,97 L-23,92 L-24,73 L-25,66 L-27,69 L-26,54 L-22,45 L-16,33 L-8,22 L-4,13 L-2,5 Z " fill="#E47604" transform="translate(488,499)"/>
<path d="M0,0 L5,0 L9,4 L18,7 L21,10 L18,10 L22,17 L26,23 L29,31 L29,35 L26,36 L20,32 L20,30 L17,30 L16,26 L11,24 L4,13 L0,3 Z " fill="#C95202" transform="translate(354,395)"/>
<path d="M0,0 L15,0 L21,4 L20,8 L11,12 L6,13 L-14,13 L-22,10 L-18,6 L-5,1 Z " fill="#27160E" transform="translate(785,608)"/>
<path d="M0,0 L2,2 L4,9 L3,18 L3,27 L0,39 L-3,45 L-9,52 L-16,56 L-26,59 L-33,57 L-36,55 L-36,53 L-38,53 L-38,50 L-33,51 L-21,51 L-14,47 L-11,44 L-9,44 L-7,37 L-3,28 L-1,20 Z " fill="#FDF27F" transform="translate(437,558)"/>
<path d="M0,0 L1,0 L1,16 L-5,28 L-14,38 L-19,41 L-28,43 L-36,38 L-40,33 L-40,31 L-36,31 L-32,32 L-21,32 L-13,27 L-9,24 L-6,13 L-2,5 Z " fill="#FDF69E" transform="translate(466,489)"/>
<path d="M0,0 L1,0 L1,5 L-1,5 L-3,9 L-10,12 L-14,14 L-15,17 L-21,20 L-32,28 L-45,37 L-51,38 L-49,33 L-45,28 L-25,15 L-5,2 Z " fill="#FDF489" transform="translate(616,208)"/>
<path d="M0,0 L2,0 L2,14 L-4,23 L-11,29 L-22,34 L-39,34 L-43,32 L-43,31 L-31,30 L-19,24 L-10,16 L-2,6 Z " fill="#FDEF73" transform="translate(435,692)"/>
<path d="M0,0 L11,0 L9,6 L4,15 L-17,15 L-15,9 L-11,2 L-27,2 L-27,1 Z " fill="#5B5046" transform="translate(339,643)"/>
<path d="M0,0 L2,0 L6,5 L-3,10 L-6,12 L-4,16 L0,19 L-5,18 L-12,16 L-30,16 L-35,18 L-34,13 L-29,9 L-13,8 L-3,1 Z " fill="#ED8E07" transform="translate(513,267)"/>
<path d="M0,0 L1,0 L1,8 L0,15 L2,15 L3,30 L6,38 L10,46 L14,48 L20,48 L28,43 L35,29 L36,29 L36,37 L31,45 L26,50 L21,52 L11,52 L5,47 L2,42 L-1,26 L-1,6 Z " fill="#DB7507" transform="translate(426,463)"/>
<path d="M0,0 L2,1 L2,8 L-1,11 L-6,13 L-16,21 L-23,26 L-24,28 L-28,28 L-26,21 L-21,14 L-10,6 L-4,4 Z " fill="#FDF28A" transform="translate(402,352)"/>
<path d="M0,0 L9,1 L20,4 L27,7 L27,10 L36,13 L46,18 L46,20 L39,19 L12,10 L0,5 Z " fill="#766B60" transform="translate(214,748)"/>
<path d="M0,0 L2,3 L5,10 L10,13 L18,13 L24,10 L30,3 L33,2 L31,9 L25,16 L20,19 L11,19 L3,16 L-1,11 L-2,6 L-1,6 Z " fill="#E7880A" transform="translate(398,588)"/>
<path d="M0,0 L7,1 L10,6 L10,12 L-13,12 L-7,5 Z " fill="#605348" transform="translate(418,645)"/>
<path d="M0,0 L1,0 L2,6 L2,26 L0,43 L-7,65 L-10,65 L-11,67 L-10,61 L-4,39 L-1,27 Z " fill="#E2890D" transform="translate(396,447)"/>
<path d="M0,0 L1,0 L1,24 L0,28 L1,39 L1,58 L-1,62 L-2,70 L-4,66 L-5,63 L-3,48 L-1,5 Z " fill="#C85403" transform="translate(493,441)"/>
<path d="M0,0 L1,3 L4,3 L9,13 L14,16 L18,17 L27,17 L35,11 L39,7 L37,13 L28,20 L25,21 L13,21 L6,18 L0,9 Z " fill="#FAC430" transform="translate(391,589)"/>
<path d="M0,0 L3,1 L5,14 L5,22 L4,19 L-3,21 L-6,23 L-6,21 L-8,21 L-7,14 Z " fill="#FAA60A" transform="translate(409,507)"/>
<path d="M0,0 L22,0 L52,2 L52,4 L49,5 L31,5 L21,4 L-5,4 L-2,1 Z " fill="#FCC219" transform="translate(721,136)"/>
<path d="M0,0 L2,2 L4,9 L3,18 L3,27 L0,39 L-3,45 L-5,46 L-3,41 L-3,37 L-6,38 L-7,42 L-8,40 L-3,28 L-1,20 Z " fill="#FCED6F" transform="translate(437,558)"/>
<path d="M0,0 L13,0 L14,4 L12,6 L-11,12 L-17,11 L-12,6 L5,2 L0,1 Z " fill="#7D7165" transform="translate(516,778)"/>
<path d="M0,0 L3,1 L-2,11 L-5,25 L-5,36 L-3,45 L-5,44 L-5,42 L-9,42 L-10,32 L-7,13 L-2,1 Z " fill="#E1810A" transform="translate(385,662)"/>
<path d="M0,0 L3,1 L6,1 L10,11 L10,36 L8,44 L5,51 L3,47 L6,37 L7,34 L7,16 L3,7 L0,3 Z " fill="#F39F12" transform="translate(426,544)"/>
<path d="M0,0 L4,0 L17,2 L17,3 L7,3 L8,5 L25,5 L31,0 L29,4 L21,10 L12,12 L4,7 L0,2 Z " fill="#FAE66E" transform="translate(426,520)"/>
<path d="M0,0 L2,4 L0,14 L-9,25 L-18,33 L-20,33 L-18,29 L-16,25 L-11,21 L-5,12 Z " fill="#F2AF15" transform="translate(434,684)"/>
<path d="M0,0 L7,1 L11,3 L7,4 L0,13 L-7,12 L-7,9 L-15,9 L-14,7 L-8,7 Z " fill="#FCB311" transform="translate(454,719)"/>
<path d="M0,0 L2,0 L0,11 L-2,21 L-2,44 L-4,46 L-6,40 L-6,23 L-2,3 Z " fill="#DB7A09" transform="translate(400,544)"/>
<path d="M0,0 L1,0 L1,16 L-5,28 L-7,29 L-6,24 L-8,24 L-7,15 L-2,5 Z " fill="#FCF171" transform="translate(466,489)"/>
<path d="M0,0 L2,0 L0,4 L-15,16 L-22,21 L-23,23 L-27,23 L-25,18 L-21,14 L-15,12 L-15,9 L-9,6 L-7,6 L-7,4 Z " fill="#FDF9AE" transform="translate(401,357)"/>
<path d="M0,0 L9,0 L7,4 L2,7 L-4,12 L-10,12 L-10,7 L-5,3 L-4,1 Z " fill="#FDF8A8" transform="translate(421,324)"/>
<path d="M0,0 L3,1 L3,13 L-1,23 L-3,25 L-3,20 L-6,19 L-4,18 L-3,6 Z " fill="#772804" transform="translate(461,473)"/>
<path d="M0,0 L1,0 L0,7 L-1,11 L-1,25 L0,46 L1,50 L1,58 L-1,54 L-2,49 L-3,30 L-4,23 L-6,26 L-5,11 L-1,2 Z " fill="#E17B09" transform="translate(467,542)"/>
<path d="M0,0 L11,1 L15,0 L15,2 L25,2 L27,7 L12,7 L0,1 Z " fill="#F69F0D" transform="translate(407,351)"/>
<path d="M0,0 L5,1 L19,1 L18,4 L22,6 L12,9 L5,7 L2,5 L2,3 L0,3 Z " fill="#FCEF76" transform="translate(399,608)"/>
<path d="M0,0 L1,0 L2,40 L2,59 L0,63 L-3,65 L-2,56 L-1,50 Z " fill="#D89521" transform="translate(377,551)"/>
<path d="M0,0 L1,0 L1,42 L0,50 L-1,50 L-2,37 L-2,16 Z " fill="#EEB934" transform="translate(380,554)"/>
<path d="M0,0 L10,0 L10,1 L-9,5 L-16,8 L-23,9 L-23,7 L-21,6 L-19,1 Z " fill="#988D7F" transform="translate(516,779)"/>
<path d="M0,0 L5,0 L6,2 L0,24 L-2,29 L-3,25 L-1,19 L-1,13 L-4,15 L-1,3 Z " fill="#FCEB70" transform="translate(378,610)"/>
<path d="M0,0 L2,4 L-8,10 L-16,14 L-25,14 L-26,12 L-14,9 L-11,6 Z " fill="#F7AB0F" transform="translate(322,700)"/>
<path d="M0,0 L9,1 L20,4 L27,7 L27,9 L18,7 L12,5 L10,7 L3,6 L0,5 Z " fill="#7F756B" transform="translate(214,748)"/>
<path d="M0,0 L10,0 L10,2 L21,2 L21,3 L3,4 L-4,6 L-12,12 L-14,11 L-8,3 L-2,1 Z " fill="#F69F04" transform="translate(535,245)"/>
<path d="M0,0 L2,4 L1,13 L5,11 L2,20 L-5,31 L-7,28 L-4,21 L-2,17 Z " fill="#FBAA11" transform="translate(480,499)"/>
<path d="M0,0 L8,0 L8,2 L0,7 L-3,10 L-9,9 L-8,4 Z " fill="#FCF6A0" transform="translate(482,285)"/>
<path d="M0,0 L24,0 L34,1 L52,1 L57,0 L59,1 L59,3 L70,3 L70,4 L57,4 L33,3 L23,2 L0,1 Z " fill="#FBD130" transform="translate(718,139)"/>
<path d="M0,0 L5,1 L7,6 L7,12 L9,17 L8,20 L7,38 L6,38 L5,15 L1,5 Z " fill="#FCD43C" transform="translate(430,540)"/>
<path d="M0,0 L8,0 L12,2 L12,4 L14,5 L1,5 L-5,8 L-9,11 L-8,6 L-3,2 Z " fill="#E47806" transform="translate(444,429)"/>
<path d="M0,0 L2,1 L-2,8 L-5,10 L-8,10 L-8,8 L-13,12 L-15,12 L-15,14 L-17,13 L-10,5 Z " fill="#DE8808" transform="translate(479,278)"/>
<path d="M0,0 L1,4 L1,11 L7,20 L9,22 L4,21 L2,17 L-3,17 L-3,6 Z " fill="#E36D02" transform="translate(357,378)"/>
<path d="M0,0 L2,1 L1,4 L7,3 L5,6 L-14,6 L-15,4 L-19,2 L-1,1 Z " fill="#F8DD4C" transform="translate(557,246)"/>
<path d="M0,0 L3,1 L-5,16 L-8,15 L-10,20 L-12,19 L-4,5 L-2,1 Z " fill="#E8AF1A" transform="translate(362,646)"/>
<path d="M0,0 L2,0 L3,13 L4,26 L3,45 L2,45 L1,9 L-1,9 Z M2,19 Z " fill="#FAD43A" transform="translate(386,522)"/>
<path d="M0,0 L6,0 L7,2 L17,4 L17,6 L19,7 L8,6 L-7,3 L-7,2 L0,1 Z " fill="#6A5E54" transform="translate(417,780)"/>
<path d="M0,0 L10,2 L16,5 L17,8 L15,9 L6,6 L0,3 Z " fill="#453C36" transform="translate(234,784)"/>
<path d="M0,0 L10,3 L18,5 L20,9 L25,11 L21,13 L18,10 L3,4 L0,2 Z " fill="#A69D91" transform="translate(241,756)"/>
<path d="M0,0 L7,0 L7,3 L1,8 L0,10 L3,11 L-9,16 L-12,15 L-1,7 L4,2 Z " fill="#481D07" transform="translate(310,695)"/>
<path d="M0,0 L1,0 L1,15 L-1,25 L-3,21 L-4,18 L-2,3 Z " fill="#D76302" transform="translate(492,486)"/>
<path d="M0,0 L13,4 L12,7 L6,8 L-4,4 Z " fill="#70665C" transform="translate(225,752)"/>
<path d="M0,0 L4,2 L3,4 L19,6 L28,7 L35,9 L35,10 L21,9 L2,5 L-1,3 Z " fill="#FCD031" transform="translate(297,739)"/>
<path d="M0,0 L2,0 L1,13 L-1,29 L-2,29 L-2,7 Z " fill="#EFA713" transform="translate(380,541)"/>
<path d="M0,0 L2,1 L-3,6 L-14,13 L-17,15 L-21,14 Z " fill="#FDE460" transform="translate(591,223)"/>
<path d="M0,0 L5,1 L8,2 L8,5 L3,6 L-6,6 L-4,2 L-6,1 Z " fill="#FDED68" transform="translate(390,746)"/>
<path d="M0,0 L8,6 L12,10 L4,10 L-4,5 L-6,2 L-2,4 L2,6 Z " fill="#401907" transform="translate(486,704)"/>
<path d="M0,0 L1,0 L2,16 L0,24 L-3,31 L-5,27 L-2,17 L-1,14 Z " fill="#E79818" transform="translate(434,564)"/>
<path d="M0,0 L2,1 L2,12 L0,13 L-2,20 L-3,20 L-3,11 L-2,2 Z " fill="#FCF291" transform="translate(383,585)"/>
<path d="M0,0 L6,0 L4,4 L0,7 L-7,7 L-7,3 Z " fill="#FCF597" transform="translate(533,252)"/>
<path d="M0,0 L7,1 L11,3 L11,5 L13,7 L6,6 L-6,2 L-6,1 Z " fill="#DC9312" transform="translate(249,735)"/>
<path d="M0,0 L1,0 L1,8 L-4,16 L-8,20 L-8,15 L-4,9 Z " fill="#E58709" transform="translate(461,492)"/>
<path d="M0,0 L3,1 L3,13 L-1,10 L-3,16 L-4,13 L-2,3 Z " fill="#963103" transform="translate(461,473)"/>
<path d="M0,0 L4,2 L3,18 L1,21 L0,13 Z " fill="#F7AD13" transform="translate(411,429)"/>
<path d="M0,0 L1,0 L1,16 L-1,18 L0,11 L-2,11 L-3,15 L-5,15 L-5,17 L-7,17 L-5,11 L-1,2 Z " fill="#FCE250" transform="translate(466,489)"/>
<path d="M0,0 L2,1 L-3,6 L-8,9 L-10,9 L-10,11 L-12,11 L-14,15 L-18,17 L-13,9 L-8,5 Z " fill="#DE7001" transform="translate(538,383)"/>
<path d="M0,0 L2,0 L3,15 L5,15 L6,20 L4,19 L4,17 L0,17 L-1,7 Z " fill="#EB8B09" transform="translate(376,687)"/>
<path d="M0,0 L4,0 L17,2 L17,3 L7,3 L9,7 L8,9 L4,7 L0,2 Z " fill="#FCE35A" transform="translate(426,520)"/>
<path d="M0,0 L2,0 L0,6 L1,8 L-7,7 L-11,4 Z " fill="#E27E06" transform="translate(691,626)"/>
<path d="M0,0 L10,3 L24,4 L24,5 L19,6 L8,6 L-2,2 Z " fill="#F08C09" transform="translate(521,271)"/>
<path d="M0,0 L2,0 L2,14 L-1,14 L-3,11 L-5,10 L-1,4 Z " fill="#FCDF4A" transform="translate(435,692)"/>
<path d="M0,0 L5,1 L6,5 L-9,5 L-11,3 L0,1 Z " fill="#F9AC11" transform="translate(428,353)"/>
<path d="M0,0 L2,1 L-3,8 L-1,9 L-6,12 L-10,12 L-9,7 Z " fill="#FDEA6D" transform="translate(568,238)"/>
<path d="M0,0 L1,4 L0,14 L-4,18 L-2,13 L-2,9 L-5,10 L-6,14 L-7,12 L-3,2 Z " fill="#FCEE78" transform="translate(436,586)"/>
<path d="M0,0 L11,0 L12,2 L8,2 L7,5 L7,3 L-4,5 L-8,7 L-6,3 Z " fill="#FCEC73" transform="translate(483,282)"/>
<path d="M0,0 L2,1 L-6,9 L-14,16 L-21,22 L-19,18 L-4,3 Z " fill="#F19408" transform="translate(404,635)"/>
<path d="M0,0 L6,1 L4,4 L1,5 L-5,12 L-7,12 L-4,3 L-1,3 Z " fill="#FBD541" transform="translate(379,638)"/>
<path d="M0,0 L2,0 L2,2 L4,3 L0,7 L-1,12 L-5,10 L-6,6 L-1,1 Z " fill="#F79C07" transform="translate(469,286)"/>
<path d="M0,0 L9,0 L16,2 L16,3 L11,4 L7,5 L0,4 Z " fill="#74695D" transform="translate(402,779)"/>
<path d="M0,0 L1,2 L-2,9 L-10,12 L-14,11 L-8,8 L-2,1 Z " fill="#D37D0B" transform="translate(430,590)"/>
<path d="M0,0 L5,0 L5,2 L8,3 L-6,5 L-16,5 L-16,4 L-6,2 Z " fill="#675C52" transform="translate(471,792)"/>
<path d="M0,0 L1,2 L-1,6 L-10,13 L-13,14 L-25,14 L-25,13 L-16,12 L-6,7 Z " fill="#FAD03F" transform="translate(429,596)"/>
<path d="M0,0 L1,0 L1,6 L-3,13 L-6,14 L-6,7 L-4,6 L-3,3 Z " fill="#FDF797" transform="translate(434,593)"/>
<path d="M0,0 L7,6 L3,7 L-13,4 L-23,3 L-23,2 L-12,2 L-1,3 Z " fill="#F3B120" transform="translate(448,319)"/>
<path d="M0,0 L1,0 L4,17 L3,21 L-1,11 L-1,1 Z " fill="#F8B114" transform="translate(424,483)"/>
<path d="M0,0 L3,3 L2,9 L-1,12 L-1,3 L-7,9 L-9,8 L-3,1 Z " fill="#FDEA5D" transform="translate(432,702)"/>
<path d="M0,0 L2,4 L-5,8 L-13,8 L-9,5 Z " fill="#EA9914" transform="translate(322,700)"/>
<path d="M0,0 L1,0 L0,13 L-2,10 L-2,15 L-4,16 L-4,5 L-2,1 Z " fill="#F9CD31" transform="translate(391,566)"/>
<path d="M0,0 L10,0 L10,2 L21,2 L21,3 L-3,3 Z " fill="#F19306" transform="translate(535,245)"/>
<path d="M0,0 L2,0 L0,4 L-3,11 L0,12 L-7,12 L-6,7 Z " fill="#FDEE6D" transform="translate(377,369)"/>
<path d="M0,0 L1,3 L8,3 L9,10 L4,9 L0,5 Z " fill="#FBE66B" transform="translate(472,291)"/>
<path d="M0,0 L3,1 L0,5 L-2,5 L-4,9 L-10,10 L-9,7 L-1,1 Z " fill="#F8A109" transform="translate(452,717)"/>
<path d="M0,0 L2,4 L1,10 L-1,10 L-3,16 L-6,16 L-4,10 Z " fill="#E3A61F" transform="translate(434,684)"/>
<path d="M0,0 L6,5 L8,7 L3,6 L-4,4 L-20,3 L-20,2 L-2,1 L0,2 Z " fill="#F5BA26" transform="translate(505,279)"/>
<path d="M0,0 L1,0 L2,19 L0,21 L-1,19 L-1,2 Z " fill="#CC6F09" transform="translate(396,569)"/>
<path d="M0,0 L1,0 L1,15 L-1,15 L-2,22 L-3,22 L-3,14 Z " fill="#D08C14" transform="translate(381,526)"/>
<path d="M0,0 L0,3 L-4,7 L-11,8 L-14,6 L-13,1 L-12,5 L-5,4 Z " fill="#FAE76E" transform="translate(538,254)"/>
<path d="M0,0 L7,4 L13,9 L15,14 L12,12 L12,10 L8,10 L4,5 L1,4 Z " fill="#CB600B" transform="translate(822,600)"/>
<path d="M0,0 L6,2 L12,5 L12,7 L5,6 L-2,3 Z " fill="#7F7368" transform="translate(248,761)"/>
<path d="M0,0 L1,2 L4,2 L7,14 L3,12 L0,4 Z " fill="#D26C0A" transform="translate(426,492)"/>
<path d="M0,0 L2,0 L0,4 L-1,7 L-6,7 L-6,5 L-11,5 L-7,3 Z " fill="#DC8F0C" transform="translate(415,711)"/>
<path d="M0,0 L1,0 L1,12 L0,14 L-1,27 L-2,27 L-2,10 Z " fill="#E58805" transform="translate(396,557)"/>
<path d="M0,0 L2,1 L-3,5 L-8,7 L-16,15 L-16,12 L-8,4 Z " fill="#F19005" transform="translate(517,396)"/>
<path d="M0,0 L2,0 L0,4 L-4,7 L-6,7 L-8,11 L-12,15 L-10,10 L-5,4 Z " fill="#B15110" transform="translate(502,823)"/>
<path d="M0,0 L5,0 L1,3 L-9,7 L-13,6 L-5,3 L-5,1 Z " fill="#B2A89A" transform="translate(480,786)"/>
<path d="M0,0 L1,0 L1,7 L-1,12 L-3,11 L-3,3 Z " fill="#FDF486" transform="translate(377,622)"/>
<path d="M0,0 L1,0 L1,23 L0,28 L-2,25 L-1,20 Z " fill="#26180F" transform="translate(375,584)"/>
<path d="M0,0 L2,1 L-10,13 L-12,13 L-10,9 Z " fill="#D05E04" transform="translate(518,400)"/>
<path d="M0,0 L2,1 L-3,6 L-7,9 L-13,10 L-9,6 Z " fill="#FCE66C" transform="translate(606,213)"/>
<path d="M0,0 L1,2 L-4,13 L-5,9 L-5,7 L-9,6 Z " fill="#B55310" transform="translate(643,768)"/>
<path d="M0,0 L2,1 L-11,14 L-13,13 L-5,4 Z " fill="#341708" transform="translate(406,641)"/>
<path d="M0,0 L1,0 L0,7 L-2,13 L-4,13 L-5,15 L-4,9 L-1,2 Z " fill="#F49409" transform="translate(467,542)"/>
<path d="M0,0 L2,0 L2,8 L1,14 L-1,12 L-1,1 Z " fill="#D96D07" transform="translate(466,555)"/>
<path d="M0,0 L1,3 L3,3 L7,9 L7,12 L1,10 Z " fill="#F08F09" transform="translate(412,526)"/>
<path d="M0,0 L1,2 L-1,8 L-7,12 L-7,9 Z " fill="#FDD53B" transform="translate(458,506)"/>
<path d="M0,0 L2,0 L4,5 L4,18 L3,18 L0,4 Z " fill="#FAAE1A" transform="translate(394,435)"/>
<path d="M0,0 L13,0 L21,1 L21,2 L7,3 L0,1 Z " fill="#7B6D62" transform="translate(420,781)"/>
<path d="M0,0 L13,0 L14,4 L12,6 L8,5 L10,5 L9,2 L0,1 Z " fill="#766B60" transform="translate(516,778)"/>
<path d="M0,0 L8,1 L9,4 L12,5 L4,4 L-3,2 Z " fill="#948A7F" transform="translate(267,768)"/>
<path d="M0,0 L4,1 L5,5 L8,5 L10,9 L9,13 L0,1 Z " fill="#AC4207" transform="translate(366,420)"/>
<path d="M0,0 L7,0 L12,1 L12,2 L5,4 L0,4 Z " fill="#FBB015" transform="translate(541,710)"/>
<path d="M0,0 L2,0 L1,4 L-1,9 L-7,10 L-4,5 L-1,2 Z " fill="#F2B820" transform="translate(354,661)"/>
<path d="M0,0 L2,1 L-1,13 L-3,16 L-2,3 L0,3 Z " fill="#EBA90F" transform="translate(375,613)"/>
<path d="M0,0 L2,2 L4,9 L3,17 L2,17 L2,10 L0,10 Z " fill="#FDE65A" transform="translate(437,558)"/>
<path d="M0,0 L2,1 L1,4 L-9,10 L-7,5 Z " fill="#C85602" transform="translate(548,376)"/>
<path d="M0,0 L6,2 L6,4 L8,5 L4,6 L-3,2 Z " fill="#73695E" transform="translate(208,746)"/>
<path d="M0,0 L3,0 L2,10 L0,14 Z " fill="#F5B20F" transform="translate(382,526)"/>
<path d="M0,0 L2,1 L2,5 L-2,4 L-19,3 L-19,2 L-1,1 Z " fill="#F8CE3F" transform="translate(557,246)"/>
<path d="M0,0 L2,1 L-4,4 L-11,3 L-12,1 Z " fill="#FBDE60" transform="translate(404,722)"/>
<path d="M0,0 L1,0 L3,9 L3,17 L1,17 L0,7 Z " fill="#EC7B02" transform="translate(465,591)"/>
<path d="M0,0 L3,0 L2,8 L-1,9 L-1,2 Z " fill="#FCCC36" transform="translate(395,490)"/>
<path d="M0,0 L1,0 L1,8 L3,8 L4,5 L4,12 L0,13 Z " fill="#FAD644" transform="translate(475,429)"/>
<path d="M0,0 L2,0 L1,3 L3,5 L-5,7 L-4,2 Z " fill="#F39708" transform="translate(421,318)"/>
<path d="M0,0 L3,0 L3,2 L-1,5 L-6,5 L-7,2 Z " fill="#FCF8AD" transform="translate(534,254)"/>
<path d="M0,0 L5,1 L5,3 L7,4 L-4,3 L-6,1 Z " fill="#61544A" transform="translate(429,783)"/>
<path d="M0,0 L1,3 L-3,9 L-9,10 L-4,5 Z " fill="#E6A721" transform="translate(333,690)"/>
<path d="M0,0 L2,1 L-6,10 L-9,13 L-8,8 L-6,8 L-6,6 L-4,6 L-3,2 Z " fill="#DE7E0E" transform="translate(399,645)"/>
<path d="M0,0 L2,0 L2,10 L0,8 L-2,9 L-1,1 Z " fill="#FCE96B" transform="translate(385,531)"/>
<path d="M0,0 L4,0 L7,5 L5,5 L4,8 L0,3 Z " fill="#FDDA42" transform="translate(420,522)"/>
<path d="M0,0 L1,0 L1,8 L0,10 L-4,11 L-2,4 Z " fill="#D67C0B" transform="translate(461,492)"/>
<path d="M0,0 L9,0 L8,3 L-2,3 L-5,3 L-4,1 Z " fill="#FCF187" transform="translate(421,324)"/>
<path d="M0,0 L4,2 L2,4 L-7,6 L-3,2 Z " fill="#612505" transform="translate(305,705)"/>
<path d="M0,0 L2,0 L0,10 L-2,10 L-2,3 Z " fill="#FDF482" transform="translate(478,427)"/>
<path d="M0,0 L1,4 L-1,9 L-2,17 L-3,17 L-3,6 Z " fill="#D37512" transform="translate(357,378)"/>
<path d="M0,0 L6,0 L5,4 L2,5 L2,3 L-3,3 Z " fill="#FDEF7F" transform="translate(577,331)"/>
</svg>
